<svg xmlns="http://www.w3.org/2000/svg" width="24" height="24" viewBox="0 0 24 24">
  <path d="M12 22c5.523 0 10-4.477 10-10S17.523 2 12 2 2 6.477 2 12s4.477 10 10 10zm0-18c4.418 0 8 3.582 8 8s-3.582 8-8 8-8-3.582-8-8 3.582-8 8-8zm-5.5,7a.5.5 0 0,1 .5.5v1a.5.5 0 0,1-.5.5h-1a.5.5 0 0,1-.5-.5v-1a.5.5 0 0,1 .5-.5h1zm6,0a.5.5 0 0,1 .5.5v1a.5.5 0 0,1-.5.5h-1a.5.5 0 0,1-.5-.5v-1a.5.5 0 0,1 .5-.5h1zm4-3a.5.5 0 0,1 .5.5v1a.5.5 0 0,1-.5.5h-1a.5.5 0 0,1-.5-.5v-1a.5.5 0 0,1 .5-.5h1zm-4-2a.5.5 0 0,1 .5.5v1a.5.5 0 0,1-.5.5h-1a.5.5 0 0,1-.5-.5v-1a.5.5 0 0,1 .5-.5h1zm-5-1a.5.5 0 0,1 .5.5v1a.5.5 0 0,1-.5.5h-1a.5.5 0 0,1-.5-.5v-1a.5.5 0 0,1 .5-.5h1zm4,10a.5.5 0 0,1 .5.5v1a.5.5 0 0,1-.5.5h-1a.5.5 0 0,1-.5-.5v-1a.5.5 0 0,1 .5-.5h1zm5,1a.5.5 0 0,1 .5.5v1a.5.5 0 0,1-.5.5h-1a.5.5 0 0,1-.5-.5v-1a.5.5 0 0,1 .5-.5h1z"/>
</svg>
